<svg width="61" height="61" viewBox="0 0 61 61" fill="none" xmlns="http://www.w3.org/2000/svg">
<path d="M57.092 21.065C53.2851 17.2584 47.7506 16.2337 43.0121 17.9867C44.7673 13.2485 43.7404 7.71432 39.9357 3.90771C34.725 -1.30257 26.2749 -1.30257 21.0643 3.90771C17.2574 7.71432 16.2327 13.2485 17.9879 17.9867C13.2494 16.2316 7.71485 17.2584 3.90798 21.065C-1.30266 26.2753 -1.30266 34.7247 3.90798 39.935C7.71485 43.7416 13.2494 44.7663 17.9879 43.0133C16.2327 47.7515 17.2595 53.2857 21.0643 57.0923C26.2749 62.3026 34.725 62.3026 39.9357 57.0923C43.7425 53.2857 44.7673 47.7515 43.0121 43.0133C47.7506 44.7684 53.2851 43.7416 57.092 39.935C62.3027 34.7247 62.3027 26.2753 57.092 21.065Z" fill="#4433EE"/>
</svg>
